<svg width="186" height="51" viewBox="0 0 186 51" fill="none" xmlns="http://www.w3.org/2000/svg">
<g clip-path="url(#clip0)">
<path d="M94.7308 18.508V-0.155659H98.8916H103.052V5.33547C103.052 8.35868 103.145 10.95 103.237 11.0426C103.361 11.1659 106.011 8.75972 109.124 5.70566L114.795 0.152832H120.312C125.582 0.152832 125.859 0.183681 125.859 0.738964C125.859 1.10915 122.654 4.4717 117.384 9.59264C112.73 14.1583 108.847 18.0761 108.754 18.3538C108.6 18.6623 111.343 21.5621 117.754 27.8244L126.938 36.8324L120.928 36.8632H114.918L109.001 30.9402L103.052 24.9863V31.0944V37.1717H98.8916H94.7308V18.508Z" fill="#168376"/>
<path d="M127.709 18.508V0.15283H139.574H151.44V4.16321V8.17359H143.735H136.03V11.4127V14.6519H142.04H148.05V18.508V22.3642H142.04H136.03V25.6033V28.8425H143.735H151.44V32.8528V36.8632H139.574H127.709V18.508Z" fill="#168376"/>
<path d="M162.227 36.709C162.227 36.6473 163.059 34.457 164.107 31.8965C165.124 29.336 165.987 26.9915 165.987 26.7139C166.018 26.282 164.662 23.3205 156.341 5.64396C154.984 2.80585 153.906 0.399623 153.906 0.307075C153.906 0.214528 155.909 0.15283 158.344 0.15283C162.597 0.15283 162.782 0.183679 163.214 0.862359C163.46 1.23255 165.001 4.44085 166.665 8.01934C169.778 14.6827 170.333 15.6082 170.826 15.1146C170.98 14.9295 172.028 12.585 173.138 9.87029C176.312 1.97292 176.959 0.399623 177.113 0.276226C177.175 0.183679 179.178 0.183679 181.582 0.214528L185.897 0.307075L183.031 7.40236C180.226 14.4051 172.49 33.439 171.535 35.7218L171.073 36.8632H166.635C164.231 36.8632 162.227 36.8015 162.227 36.709Z" fill="#168376"/>
<path d="M27.4501 42.0767L29.7308 33.1305L27.8199 31.0636C25.7242 28.8425 23.8441 25.2948 23.2585 22.4259C21.9333 16.0401 24.3372 8.60547 29.0219 4.62594C35.0627 -0.556697 42.0897 -1.48217 49.4866 1.94208C51.4591 2.8367 52.6303 3.66962 54.1097 5.11953C56.5445 7.52576 57.5615 9.09906 58.7019 12.2457C59.5032 14.4359 59.5957 15.0529 59.5957 18.4772C59.5957 24.0609 58.4861 26.9607 54.7569 31.1561C53.8631 32.1742 53.1234 33.2539 53.1234 33.5624C53.1234 33.9942 56.6061 47.1359 57.6232 50.5293C57.7773 51.0229 56.8527 51.0538 41.4733 51.0538H25.1386L27.4501 42.0767ZM48.1922 42.8171C48.1922 42.7245 47.36 39.5162 46.3429 35.7218C45.3259 31.8965 44.4937 28.6574 44.4937 28.5031C44.4937 28.318 45.1101 27.917 45.819 27.6085C47.2367 26.9607 49.6715 24.6161 50.442 23.1045C51.3975 21.2536 51.7365 18.7548 51.305 16.7188C50.8119 14.3742 50.3188 13.4179 48.7161 11.6287C43.8465 6.32264 35.3093 7.83425 32.2581 14.5593C31.58 16.0709 31.4876 16.5645 31.6108 18.9091C31.7033 20.8834 31.919 21.9323 32.443 22.9194C33.3984 24.7704 35.0011 26.4671 36.6345 27.3309C37.4051 27.7319 38.0215 28.2872 38.0215 28.5648C38.0215 28.9967 35.186 41.0278 34.7545 42.5086C34.6004 43.0022 35.0627 43.033 41.3809 43.033C45.141 43.033 48.1922 42.9405 48.1922 42.8171Z" fill="white"/>
<path d="M-0.195679 18.6623V0.15283H3.96506H8.12581V14.4976V28.8424H14.9063H21.6867V33.0071V37.1717H10.7455H-0.195679V18.6623Z" fill="white"/>
<path d="M74.2354 36.5856C68.9651 35.2591 64.4962 31.5572 61.9997 26.4979L60.6745 23.7524L60.582 19.0942C60.4895 14.4976 60.4895 14.4051 61.445 11.9372C63.6949 6.07585 68.5336 1.81868 74.6977 0.276225C77.4715 -0.433303 82.4644 -0.186511 85.0225 0.76981C86.995 1.51019 90.5394 3.66962 91.4023 4.65679C91.9263 5.24292 91.8338 5.36632 89.0292 8.17358L86.132 11.0425L84.8684 10.2096C81.9097 8.23528 77.903 7.89594 74.8518 9.34585C72.417 10.5181 69.9514 13.1711 69.3042 15.3306C68.811 17.0581 68.6877 20.8217 69.1192 21.3153C69.2733 21.4695 69.5507 22.0865 69.7356 22.7343C70.2288 24.2151 72.9101 26.9298 74.6669 27.701C76.7627 28.6265 79.968 28.7499 82.1562 27.9787C83.1117 27.6393 84.3753 26.9915 84.9301 26.5596L85.9779 25.7884L88.8442 28.6574L91.6797 31.5263L90.8784 32.4826C89.8921 33.6549 85.7006 35.7835 83.1733 36.3696C80.0296 37.11 76.6702 37.2026 74.2354 36.5856Z" fill="white"/>
<path d="M94.731 18.508V-0.155659H98.8917H103.022L103.114 5.64396L103.207 11.4127L99.9088 14.7136C98.0595 16.5337 96.5802 18.1995 96.5802 18.4155C96.5802 18.6314 98.0287 20.2664 99.8163 22.0557L103.052 25.2948V31.2178V37.1717H98.8917H94.731V18.508Z" fill="white"/>
</g>
<defs>
<clipPath id="clip0">
<rect width="186" height="51" fill="white"/>
</clipPath>
</defs>
</svg>
