<svg width="20" height="20" viewBox="0 0 20 20" fill="none" xmlns="http://www.w3.org/2000/svg">
<path d="M19.5871 15.9161C19.5128 15.878 18.9536 15.568 18.3937 14.6303C17.3654 12.9084 17.1496 10.4827 17.1496 8.75098C17.1496 8.74344 17.1494 8.73598 17.1491 8.72848C17.1379 6.43984 15.4059 4.46695 12.9275 3.58176V2.22797C12.9275 0.999453 11.6665 0 10.1165 0H9.88351C8.3335 0 7.07247 0.999453 7.07247 2.22797V3.58168C4.58577 4.46973 2.85038 6.45269 2.85038 8.75098C2.85038 10.4827 2.63455 12.9083 1.60629 14.6303C1.04642 15.568 0.487243 15.8779 0.412896 15.9161C0.0998124 16.0308 -0.0545576 16.2956 0.0174685 16.564C0.0901858 16.8351 0.410379 17.022 0.760043 17.022H6.18777C6.21808 18.6681 7.916 20 10 20C12.084 20 13.782 18.6681 13.8123 17.022H19.24C19.5896 17.022 19.9099 16.8351 19.9826 16.564C20.0545 16.2956 19.9002 16.0307 19.5871 15.9161ZM8.55352 2.22797C8.55352 1.64668 9.15017 1.17379 9.88356 1.17379H10.1165C10.8499 1.17379 11.4466 1.64668 11.4466 2.22797V3.20129C10.9792 3.12484 10.4953 3.08461 9.99982 3.08461C9.50448 3.08461 9.02078 3.1248 8.55357 3.20117V2.22797H8.55352ZM10 18.8262C8.73263 18.8262 7.69884 18.0209 7.66877 17.022H12.3312C12.3012 18.0208 11.2674 18.8262 10 18.8262ZM12.9818 15.8481C12.9816 15.8481 2.44765 15.8481 2.44765 15.8481C2.57575 15.6902 2.70613 15.5113 2.83572 15.3091C3.82819 13.7606 4.33143 11.5541 4.33143 8.75098C4.33143 6.27375 6.87426 4.2584 9.99977 4.2584C13.1253 4.2584 15.6681 6.27375 15.6681 8.75293C15.6681 8.76016 15.6683 8.76734 15.6686 8.77453C15.6714 11.5664 16.1746 13.765 17.1643 15.3091C17.2939 15.5113 17.4243 15.6902 17.5524 15.8481H12.9818Z" fill="#EFF5F8"/>
</svg>
