<svg width="63" height="60" viewBox="0 0 63 60" fill="none" xmlns="http://www.w3.org/2000/svg">
<path d="M59.0179 4.45212H51.9877V1.03634C51.9877 0.464074 51.5036 0 50.9068 0H41.6195C41.0227 0 40.5386 0.464074 40.5386 1.03634V4.45212H21.7221V1.03634C21.7221 0.464074 21.238 0 20.6411 0H11.3539C10.757 0 10.273 0.464074 10.273 1.03634V4.45212H3.24274C1.45469 4.45212 0 5.84683 0 7.56114V19.3754V56.891C0 58.6053 1.45469 60 3.24274 60H59.0179C60.806 60 62.2607 58.6053 62.2607 56.891V19.3754V7.56114C62.2607 5.84683 60.806 4.45212 59.0179 4.45212ZM42.7004 5.48846V2.07268H49.8258V5.48846V8.90424H42.7004V5.48846ZM12.4348 5.48846V2.07268H19.5602V5.48846V8.90424H12.4348V5.48846ZM60.0989 56.891C60.0989 57.4624 59.614 57.9273 59.0179 57.9273H3.24274C2.64673 57.9273 2.16183 57.4624 2.16183 56.891V20.4118H60.0989V56.891ZM60.0989 18.3391H2.16183V7.56114C2.16183 6.98971 2.64673 6.5248 3.24274 6.5248H10.273V9.94058C10.273 10.5128 10.757 10.9769 11.3539 10.9769H20.6411C21.238 10.9769 21.7221 10.5128 21.7221 9.94058V6.5248H40.5386V9.94058C40.5386 10.5128 41.0227 10.9769 41.6195 10.9769H50.9068C51.5036 10.9769 51.9877 10.5128 51.9877 9.94058V6.5248H59.0179C59.614 6.5248 60.0989 6.98971 60.0989 7.56114V18.3391Z" fill="#EFF5F8"/>
<path d="M8.27794 36.2075H14.4214C15.0183 36.2075 15.5023 35.7434 15.5023 35.1711V29.281C15.5023 28.7087 15.0183 28.2446 14.4214 28.2446H8.27794C7.68106 28.2446 7.19702 28.7087 7.19702 29.281V35.1711C7.19702 35.7434 7.68106 36.2075 8.27794 36.2075Z" fill="#EFF5F8"/>
<path d="M21.4652 36.2075H27.6087C28.2055 36.2075 28.6896 35.7434 28.6896 35.1711V29.281C28.6896 28.7087 28.2055 28.2446 27.6087 28.2446H21.4652C20.8683 28.2446 20.3843 28.7087 20.3843 29.281V35.1711C20.3843 35.7434 20.8683 36.2075 21.4652 36.2075Z" fill="#EFF5F8"/>
<path d="M34.652 36.2075H40.7954C41.3923 36.2075 41.8764 35.7434 41.8764 35.1711V29.281C41.8764 28.7087 41.3923 28.2446 40.7954 28.2446H34.652C34.0551 28.2446 33.571 28.7087 33.571 29.281V35.1711C33.571 35.7434 34.0551 36.2075 34.652 36.2075Z" fill="#EFF5F8"/>
<path d="M47.8392 36.2075H53.9827C54.5796 36.2075 55.0636 35.7434 55.0636 35.1711V29.281C55.0636 28.7087 54.5796 28.2446 53.9827 28.2446H47.8392C47.2423 28.2446 46.7583 28.7087 46.7583 29.281V35.1711C46.7583 35.7434 47.2423 36.2075 47.8392 36.2075Z" fill="#EFF5F8"/>
<path d="M8.27794 48.7819H14.4214C15.0183 48.7819 15.5023 48.3178 15.5023 47.7455V41.8554C15.5023 41.2831 15.0183 40.819 14.4214 40.819H8.27794C7.68106 40.819 7.19702 41.2831 7.19702 41.8554V47.7455C7.19702 48.3178 7.68106 48.7819 8.27794 48.7819Z" fill="#EFF5F8"/>
<path d="M21.4652 48.7819H27.6087C28.2055 48.7819 28.6896 48.3178 28.6896 47.7455V41.8554C28.6896 41.2831 28.2055 40.819 27.6087 40.819H21.4652C20.8683 40.819 20.3843 41.2831 20.3843 41.8554V47.7455C20.3843 48.3178 20.8683 48.7819 21.4652 48.7819Z" fill="#EFF5F8"/>
<path d="M34.652 48.7819H40.7954C41.3923 48.7819 41.8764 48.3178 41.8764 47.7455V41.8554C41.8764 41.2831 41.3923 40.819 40.7954 40.819H34.652C34.0551 40.819 33.571 41.2831 33.571 41.8554V47.7455C33.571 48.3178 34.0551 48.7819 34.652 48.7819Z" fill="#EFF5F8"/>
<path d="M47.8392 48.7819H53.9827C54.5796 48.7819 55.0636 48.3178 55.0636 47.7455V41.8554C55.0636 41.2831 54.5796 40.819 53.9827 40.819H47.8392C47.2423 40.819 46.7583 41.2831 46.7583 41.8554V47.7455C46.7583 48.3178 47.2423 48.7819 47.8392 48.7819Z" fill="#EFF5F8"/>
</svg>
