<svg width="60" height="60" viewBox="0 0 60 60" fill="none" xmlns="http://www.w3.org/2000/svg">
<path d="M19 24H25C25.5519 24 25.9999 23.552 25.9999 23C25.9999 22.4481 25.5519 22.0001 25 22.0001H19C18.448 22.0001 18 22.4481 18 23C18 23.552 18.448 24 19 24Z" fill="#EFF5F8"/>
<path d="M46.9999 22H29C28.448 22 28 22.448 28 22.9999C28 23.5519 28.448 23.9999 29 23.9999H46.9999C47.5519 23.9999 47.9999 23.5519 47.9999 22.9999C47.9999 22.448 47.5519 22 46.9999 22Z" fill="#EFF5F8"/>
<path d="M44.0002 29C44.0002 29.552 44.4483 30 45.0002 30H49.0002C49.5521 30 50.0001 29.552 50.0001 29C50.0001 28.4481 49.5521 28.0001 49.0002 28.0001H45.0002C44.4483 27.9999 44.0002 28.448 44.0002 29Z" fill="#EFF5F8"/>
<path d="M19 30H28.9999C29.5519 30 29.9999 29.552 29.9999 29C29.9999 28.4481 29.5519 28.0001 28.9999 28.0001H19C18.448 28.0001 18 28.4481 18 29C18 29.552 18.448 30 19 30Z" fill="#EFF5F8"/>
<path d="M5.00004 38C3.34605 38 2.00004 36.654 2.00004 35V5.00004C2.00004 3.34605 3.34605 2.00004 5.00004 2.00004H47C48.654 2.00004 50 3.34605 50 5.00004V9C50 9.55195 50.448 9.99996 51 9.99996C51.552 9.99996 52 9.55195 52 9V5.00004C52 2.24297 49.757 0 47 0H5.00004C2.24297 0 0 2.24297 0 5.00004V35C0 37.757 2.24297 40.0001 5.00004 40.0001C5.55199 40.0001 6 39.5521 6 39.0001C6 38.448 5.55199 38 5.00004 38Z" fill="#EFF5F8"/>
<path d="M36.9997 36H46.9997C47.5516 36 47.9996 35.552 47.9996 35.0001C47.9996 34.4481 47.5516 34.0001 46.9997 34.0001H36.9997C36.4478 34.0001 35.9998 34.4481 35.9998 35.0001C35.9998 35.552 36.4478 36 36.9997 36Z" fill="#EFF5F8"/>
<path d="M54.9998 12H12.9998C10.2428 12 7.99976 14.243 7.99976 17V47C7.99976 49.757 10.2427 52.0001 12.9998 52.0001H37.9998C38.5517 52.0001 38.9997 51.5521 38.9997 51.0001C38.9997 50.4482 38.5517 50.0002 37.9998 50.0002H12.9998C11.3458 50.0002 9.99979 48.6541 9.99979 47.0002V17.0002C9.99979 15.3462 11.3458 14.0002 12.9998 14.0002H54.9998C56.6538 14.0002 57.9998 15.3462 57.9998 17.0002V47.0002C57.9998 48.6541 56.6538 50.0002 54.9998 50.0002H50.9998C50.4479 50.0002 49.9999 50.4482 49.9999 51.0001V56.5861L41.7069 48.293C41.3158 47.9019 40.6838 47.9019 40.2929 48.293C39.9018 48.684 39.9018 49.316 40.2929 49.707L50.2928 59.7069C50.4839 59.8979 50.7398 59.9999 50.9998 59.9999C51.1289 59.9999 51.2588 59.9749 51.3828 59.9239C51.7558 59.7689 51.9998 59.404 51.9998 58.9999V52H54.9998C57.7567 52 59.9998 49.757 59.9998 46.9999V16.9999C59.9998 14.243 57.7569 12 54.9998 12Z" fill="#EFF5F8"/>
<path d="M19 36H33C33.552 36 34 35.552 34 35.0001C34 34.4481 33.552 34.0001 33 34.0001H19C18.448 34.0001 18 34.4481 18 35.0001C18 35.552 18.448 36 19 36Z" fill="#EFF5F8"/>
<path d="M39 42H48.9999C49.5519 42 49.9999 41.552 49.9999 41.0001C49.9999 40.4481 49.5519 40.0001 48.9999 40.0001H39C38.448 40.0001 38 40.4481 38 41.0001C38 41.552 38.448 42 39 42Z" fill="#EFF5F8"/>
<path d="M42 29C42 28.4481 41.552 28.0001 41 28.0001H33C32.448 28.0001 32 28.4481 32 29C32 29.552 32.448 30 33 30H41C41.552 30 42 29.552 42 29Z" fill="#EFF5F8"/>
<path d="M19 42H34.9999C35.5519 42 35.9999 41.552 35.9999 41.0001C35.9999 40.4481 35.5519 40.0001 34.9999 40.0001H19C18.448 40.0001 18 40.4481 18 41.0001C18 41.552 18.448 42 19 42Z" fill="#EFF5F8"/>
</svg>
