<svg width="60" height="58" viewBox="0 0 60 58" fill="none" xmlns="http://www.w3.org/2000/svg">
<path d="M15.395 12.4851H44.63C45.2122 12.4851 45.6842 12.0131 45.6842 11.4309C45.6842 10.8488 45.2122 10.3768 44.63 10.3768H15.395C14.8128 10.3768 14.3408 10.8488 14.3408 11.4309C14.3408 12.0131 14.8128 12.4851 15.395 12.4851Z" fill="#EFF5F8"/>
<path d="M15.395 19.0617H44.63C45.2122 19.0617 45.6842 18.5897 45.6842 18.0076C45.6842 17.4254 45.2122 16.9534 44.63 16.9534H15.395C14.8128 16.9534 14.3408 17.4254 14.3408 18.0076C14.3408 18.5897 14.8128 19.0617 15.395 19.0617Z" fill="#EFF5F8"/>
<path d="M52.15 35.8554V8.05767C52.15 8.05767 52.0427 7.51387 51.8412 7.31232L45.0946 0.565768C44.8931 0.364075 44.6235 0.259644 44.3493 0.259503L8.9299 0.256973C8.34773 0.256973 7.87575 0.728951 7.87575 1.31112V31.1074C3.21614 33.3914 0 38.1835 0 43.7132C0 51.4494 6.29383 57.743 14.0299 57.743H48.8002C54.9758 57.743 60 52.7188 60 46.5432C60 41.5342 56.6942 37.2829 52.15 35.8554ZM45.4034 3.85598L48.551 7.00352H45.4034V3.85598ZM9.98405 2.36527H43.2951V8.05767C43.2951 8.63984 43.7671 9.11182 44.3493 9.11182H50.0417V35.4138C49.638 35.3691 49.2286 35.3441 48.8134 35.3435C48.8141 35.2842 48.8145 35.2252 48.8145 35.1664C48.8145 31.4626 47.4136 28.0802 45.1144 25.5197C45.4529 25.3443 45.6845 24.9915 45.6845 24.5839C45.6845 24.0017 45.2126 23.5298 44.6304 23.5298H42.9239C40.5254 21.7599 37.5632 20.7122 34.3604 20.7122C31.1626 20.7122 28.1851 21.7502 25.7722 23.5298H15.3953C14.8132 23.5298 14.3412 24.0017 14.3412 24.5839C14.3412 25.1661 14.8132 25.6381 15.3953 25.6381H23.4771C22.0907 27.2228 21.0414 29.1226 20.4493 31.2378C18.4713 30.2171 16.2791 29.6833 14.0299 29.6833C12.6238 29.6833 11.2656 29.8922 9.98391 30.2788V2.36527H9.98405ZM48.8003 55.6349H14.03C7.45634 55.6349 2.10844 50.2868 2.10844 43.7133C2.10844 37.1398 7.45648 31.7917 14.03 31.7917C16.3675 31.7917 18.6324 32.4702 20.5798 33.7537C20.8768 33.9494 21.2523 33.9821 21.5787 33.8409C21.9051 33.6996 22.1381 33.4032 22.1987 33.0528C23.2215 27.1238 28.3363 22.8207 34.3604 22.8207C41.168 22.8207 46.7062 28.359 46.7062 35.1664C46.7062 35.5522 46.6865 35.9531 46.6477 36.3579C46.6175 36.6734 46.7308 36.9857 46.9563 37.2084C47.1816 37.431 47.4947 37.5406 47.8104 37.5065C48.1458 37.4702 48.4787 37.4518 48.8002 37.4518C53.8133 37.4518 57.8917 41.5302 57.8917 46.5434C57.8917 51.5565 53.8134 55.6349 48.8003 55.6349Z" fill="#EFF5F8"/>
</svg>
