<svg width="29" height="24" viewBox="0 0 29 24" fill="none" xmlns="http://www.w3.org/2000/svg">
<g clip-path="url(#clip0)">
<path d="M28.3832 12.073C28.3832 5.446 22.0289 0.072998 14.1916 0.072998C6.3543 0.072998 0 5.446 0 12.073C0 18.063 5.1894 23.027 11.9742 23.927V15.542H8.37069V12.072H11.9742V9.43C11.9742 6.423 14.0935 4.761 17.3351 4.761C18.8867 4.761 20.5116 4.996 20.5116 4.996V7.949H18.7211C16.9578 7.949 16.4079 8.874 16.4079 9.823V12.073H20.3437L19.7145 15.543H16.4079V23.928C23.1938 23.027 28.3832 18.062 28.3832 12.073Z" fill="#EFF5F8"/>
</g>
<defs>
<clipPath id="clip0">
<rect width="28.3832" height="24" fill="white"/>
</clipPath>
</defs>
</svg>
