<svg width="46" height="46" viewBox="0 0 46 46" fill="none" xmlns="http://www.w3.org/2000/svg">
<path d="M23.0001 0C13.4261 0 5.63704 7.78904 5.63704 17.3629C5.63704 21.3205 8.42024 27.1846 13.9094 34.7921C17.9166 40.3457 21.9821 44.8702 22.0226 44.9153L22.9999 46L23.9773 44.9153C24.0179 44.8703 28.0833 40.3459 32.0904 34.7921C37.5796 27.1845 40.3628 21.3205 40.3628 17.3629C40.363 7.78904 32.5739 0 23.0001 0ZM22.9999 42.0475C18.1247 36.4311 8.26829 23.7549 8.26829 17.3629C8.26816 9.23984 14.8769 2.63112 23.0001 2.63112C31.1232 2.63112 37.7318 9.23984 37.7318 17.3629C37.7318 23.7511 27.8751 36.4298 22.9999 42.0475Z" fill="#EFF5F8"/>
<path d="M23.0001 23.9008C26.6108 23.9008 29.5379 20.9737 29.5379 17.363C29.5379 13.7523 26.6108 10.8252 23.0001 10.8252C19.3894 10.8252 16.4623 13.7523 16.4623 17.363C16.4623 20.9737 19.3894 23.9008 23.0001 23.9008Z" fill="#EFF5F8"/>
</svg>
