<svg width="46" height="46" viewBox="0 0 46 46" fill="none" xmlns="http://www.w3.org/2000/svg">
<path d="M42.4578 5.75488H3.54219C1.59156 5.75488 0 7.34644 0 9.29708V36.703C0 38.6536 1.59156 40.2452 3.54219 40.2452H42.4578C44.4084 40.2452 46 38.6536 46 36.703V9.29708C46 7.34644 44.4084 5.75488 42.4578 5.75488ZM41.9435 8.37514L23.2426 24.3684L4.54177 8.37514H41.9435ZM43.3797 36.703C43.3797 37.2076 42.9624 37.6249 42.4578 37.6249H3.54219C3.03755 37.6249 2.62025 37.2076 2.62025 36.703V10.1802L22.3886 27.0857C22.3983 27.0954 22.4177 27.1051 22.4274 27.1148C22.4371 27.1245 22.4565 27.1342 22.4662 27.1439C22.4954 27.1633 22.5148 27.1827 22.5439 27.1924C22.5536 27.2021 22.5633 27.2021 22.573 27.2118C22.6118 27.2313 22.6506 27.2507 22.6895 27.2701C22.6992 27.2701 22.7089 27.2798 22.7186 27.2798C22.7477 27.2895 22.7768 27.3089 22.8156 27.3186C22.8253 27.3186 22.8447 27.3283 22.8544 27.3283C22.8835 27.338 22.9127 27.3477 22.9418 27.3477C22.9515 27.3477 22.9709 27.3574 22.9806 27.3574C23.0097 27.3671 23.0485 27.3671 23.0776 27.3768C23.0873 27.3768 23.097 27.3768 23.1068 27.3768C23.1456 27.3768 23.1941 27.3865 23.2329 27.3865C23.2717 27.3865 23.3203 27.3865 23.3591 27.3768C23.3688 27.3768 23.3785 27.3768 23.3882 27.3768C23.4173 27.3768 23.4561 27.3671 23.4852 27.3574C23.4949 27.3574 23.5143 27.3477 23.524 27.3477C23.5532 27.338 23.5823 27.3283 23.6114 27.3283C23.6211 27.3283 23.6405 27.3186 23.6502 27.3186C23.6793 27.3089 23.7084 27.2992 23.7473 27.2798C23.757 27.2798 23.7667 27.2701 23.7764 27.2701C23.8152 27.2507 23.854 27.2313 23.8928 27.2118C23.9025 27.2021 23.9122 27.2021 23.9219 27.1924C23.9511 27.173 23.9705 27.1633 23.9996 27.1439C24.0093 27.1342 24.0287 27.1245 24.0384 27.1148C24.0481 27.1051 24.0675 27.0954 24.0772 27.0857L43.3797 10.5975V36.703Z" fill="#EFF5F8"/>
</svg>
