<svg width="30" height="30" viewBox="0 0 30 30" fill="none" xmlns="http://www.w3.org/2000/svg">
<path d="M4.28571 21.4286C1.92268 21.4286 0 23.3513 0 25.7143C0 28.0773 1.92268 30 4.28571 30C6.64875 30 8.57143 28.0773 8.57143 25.7143C8.57143 23.3513 6.64875 21.4286 4.28571 21.4286Z" fill="#EFF5F8"/>
<path d="M15.0001 21.4286C12.637 21.4286 10.7144 23.3513 10.7144 25.7143C10.7144 28.0773 12.637 30 15.0001 30C17.3631 30 19.2858 28.0773 19.2858 25.7143C19.2858 23.3513 17.3631 21.4286 15.0001 21.4286Z" fill="#EFF5F8"/>
<path d="M25.7144 21.4286C23.3514 21.4286 21.4287 23.3513 21.4287 25.7143C21.4287 28.0773 23.3514 30 25.7144 30C28.0775 30 30.0001 28.0773 30.0001 25.7143C30.0001 23.3513 28.0775 21.4286 25.7144 21.4286Z" fill="#EFF5F8"/>
<path d="M4.28571 10.7142C1.92268 10.7142 0 12.6369 0 14.9999C0 17.363 1.92268 19.2857 4.28571 19.2857C6.64875 19.2857 8.57143 17.363 8.57143 14.9999C8.57143 12.6369 6.64875 10.7142 4.28571 10.7142Z" fill="#EFF5F8"/>
<path d="M15.0001 10.7142C12.637 10.7142 10.7144 12.6369 10.7144 14.9999C10.7144 17.363 12.637 19.2857 15.0001 19.2857C17.3631 19.2857 19.2858 17.363 19.2858 14.9999C19.2858 12.6369 17.3631 10.7142 15.0001 10.7142Z" fill="#EFF5F8"/>
<path d="M25.7144 10.7142C23.3514 10.7142 21.4287 12.6369 21.4287 14.9999C21.4287 17.363 23.3514 19.2857 25.7144 19.2857C28.0775 19.2857 30.0001 17.363 30.0001 14.9999C30.0001 12.6369 28.0775 10.7142 25.7144 10.7142Z" fill="#EFF5F8"/>
<path d="M4.28571 0C1.92268 0 0 1.92268 0 4.28571C0 6.64875 1.92268 8.57143 4.28571 8.57143C6.64875 8.57143 8.57143 6.64875 8.57143 4.28571C8.57143 1.92268 6.64875 0 4.28571 0Z" fill="#EFF5F8"/>
<path d="M15.0001 0C12.637 0 10.7144 1.92268 10.7144 4.28571C10.7144 6.64875 12.637 8.57143 15.0001 8.57143C17.3631 8.57143 19.2858 6.64875 19.2858 4.28571C19.2858 1.92268 17.3631 0 15.0001 0Z" fill="#EFF5F8"/>
<path d="M25.7144 8.57143C28.0775 8.57143 30.0001 6.64875 30.0001 4.28571C30.0001 1.92268 28.0775 0 25.7144 0C23.3514 0 21.4287 1.92268 21.4287 4.28571C21.4287 6.64875 23.3514 8.57143 25.7144 8.57143Z" fill="#EFF5F8"/>
</svg>
