<svg width="28" height="30" viewBox="0 0 28 30" fill="none" xmlns="http://www.w3.org/2000/svg">
<path d="M12.0167 0.369912C11.5272 -0.123304 10.7348 -0.123304 10.2466 0.369912L0.35857 10.3693C-0.134646 10.8675 -0.114563 11.7099 0.391139 12.1882L10.2466 22.155C10.7361 22.6482 11.5284 22.6482 12.0167 22.155C12.5061 21.6617 12.5061 20.8619 12.0167 20.3687L4.27048 12.5361H25.0265V28.7481C25.0265 29.4391 25.5874 29.9999 26.2783 29.9999C26.9693 29.9999 27.5301 29.439 27.5301 28.7481V11.2619C27.5301 10.5708 26.9692 10.0101 26.2783 10.0101H4.24915L12.0166 2.15506C12.506 1.66299 12.506 0.863127 12.0167 0.369912Z" fill="#EFF5F8"/>
</svg>
