<svg width="20" height="20" viewBox="0 0 20 20" fill="none" xmlns="http://www.w3.org/2000/svg">
<g clip-path="url(#clip0)">
<path d="M19.7479 18.5829L14.0096 12.8357C15.1409 11.4779 15.8213 9.74273 15.8213 7.84754C15.8213 3.52388 12.2758 0.00834656 7.91475 0.00834656C3.55364 0.00834656 0 3.52799 0 7.85164C0 12.1753 3.54544 15.6908 7.90655 15.6908C9.7592 15.6908 11.4643 15.055 12.8169 13.9926L18.5757 19.7561C18.9118 20.0924 19.4118 20.0924 19.7479 19.7561C20.084 19.4197 20.084 18.9192 19.7479 18.5829ZM1.6805 7.85164C1.6805 4.45507 4.47587 1.69433 7.90655 1.69433C11.3372 1.69433 14.1326 4.45507 14.1326 7.85164C14.1326 11.2482 11.3372 14.009 7.90655 14.009C4.47587 14.009 1.6805 11.2441 1.6805 7.85164Z" fill="#2D3047"/>
</g>
<defs>
<clipPath id="clip0">
<rect width="20" height="20" fill="white"/>
</clipPath>
</defs>
</svg>
