<svg width="30" height="30" viewBox="0 0 30 30" fill="none" xmlns="http://www.w3.org/2000/svg">
<g clip-path="url(#clip0)">
<path d="M26.1858 8.81357C25.6978 8.32549 24.9064 8.32549 24.4183 8.81357C23.9302 9.30165 23.9302 10.093 24.4183 10.5811C26.8586 13.0214 26.8586 16.9782 24.4183 19.4184C23.9302 19.9065 23.9302 20.6979 24.4183 21.1859C24.9064 21.674 25.6978 21.674 26.1858 21.1859C29.6023 17.7695 29.6023 12.23 26.1858 8.81357Z" fill="#EFF5F8"/>
<path d="M19.337 0.192043L9.64234 6.25124H2.50177C1.81151 6.25124 1.25195 6.81079 1.25195 7.50105V22.4991C1.25195 23.1893 1.81151 23.7489 2.50177 23.7489H9.64234L19.337 29.8081C20.1695 30.3284 21.2493 29.7299 21.2493 28.7482V1.25186C21.2493 0.270255 20.1695 -0.328259 19.337 0.192043ZM18.7497 26.4932L11.2506 21.8063V19.9994C11.2506 19.3091 10.6911 18.7496 10.0008 18.7496C9.31057 18.7496 8.75102 19.3091 8.75102 19.9994V21.2492H3.75164V8.75087H8.75096V10.0007C8.75096 10.6909 9.31051 11.2505 10.0008 11.2505C10.691 11.2505 11.2506 10.6909 11.2506 10.0007V8.19371L18.7496 3.50684V26.4932H18.7497Z" fill="#EFF5F8"/>
</g>
<defs>
<clipPath id="clip0">
<rect width="30" height="30" fill="white"/>
</clipPath>
</defs>
</svg>
