<svg width="46" height="60" viewBox="0 0 46 60" fill="none" xmlns="http://www.w3.org/2000/svg">
<path d="M39.2605 2.72542H29.9126L29.5325 1.01834C29.402 0.423522 28.8734 0 28.264 0H17.7342C17.1247 0 16.5982 0.423522 16.4656 1.01834L16.0875 2.72542H6.73765C3.31749 2.72542 0.536621 5.50731 0.536621 8.92747V53.7981C0.536621 57.2182 3.31749 60.0001 6.73765 60.0001H39.2606C42.6808 60.0001 45.4637 57.2182 45.4637 53.7981V8.92747C45.4636 5.50731 42.6807 2.72542 39.2605 2.72542ZM41.4101 53.798C41.4101 54.9826 40.4462 55.9465 39.2605 55.9465H6.73752C5.55388 55.9465 4.58996 54.9826 4.58996 53.798V8.92747C4.58996 7.74281 5.55388 6.77902 6.73752 6.77902H15.1868L14.9712 7.7488C14.884 8.13371 14.9791 8.53747 15.2245 8.84437C15.4718 9.15217 15.846 9.33124 16.2397 9.33124H29.76C30.154 9.33124 30.528 9.15217 30.7734 8.84437C31.0209 8.53658 31.1158 8.13383 31.0288 7.7488L30.8131 6.77902H39.2605C40.4462 6.77902 41.4101 7.74294 41.4101 8.92747V53.798Z" fill="#EFF5F8"/>
<path d="M14.7734 24.0152H20.2856L18.9755 23.1206C17.1267 21.8589 16.6518 19.3362 17.9145 17.4876C19.1753 15.641 21.6989 15.163 23.5474 16.4267L23.7633 16.5742V15.0274C23.7633 14.0249 22.9498 13.2115 21.9482 13.2115H14.7734C13.772 13.2115 12.9585 14.025 12.9585 15.0274V22.1992C12.9585 23.2019 13.772 24.0152 14.7734 24.0152Z" fill="#EFF5F8"/>
<path d="M31.6506 14.0596L25.2971 20.0745L22.4034 18.1003C21.4831 17.4679 20.2202 17.7074 19.5869 18.6308C18.9555 19.5549 19.1931 20.8158 20.1194 21.4472L24.361 24.3438C24.7074 24.5813 25.1052 24.6971 25.5031 24.6971C26.0078 24.6971 26.5084 24.5092 26.8965 24.1419L34.4374 17.0028C35.2508 16.2339 35.2843 14.9503 34.5164 14.1378C33.7446 13.3253 32.4638 13.2907 31.6506 14.0596Z" fill="#EFF5F8"/>
<path d="M14.7734 37.9384H20.2876L18.9755 37.0428C17.1267 35.7809 16.6518 33.2584 17.9145 31.4098C19.1753 29.562 21.6989 29.0841 23.5474 30.3488L23.7633 30.4964V28.9496C23.7633 27.9472 22.9498 27.1337 21.9482 27.1337H14.7734C13.772 27.1337 12.9585 27.9472 12.9585 28.9496V36.1225C12.9585 37.1249 13.772 37.9384 14.7734 37.9384Z" fill="#EFF5F8"/>
<path d="M31.6506 27.9826L25.2971 33.9966L22.4034 32.0223C21.4831 31.3889 20.2202 31.6275 19.5869 32.5528C18.9555 33.4772 19.1931 34.7378 20.1194 35.3693L24.361 38.2659C24.7074 38.5035 25.1052 38.6192 25.5031 38.6192C26.0078 38.6192 26.5084 38.4311 26.8965 38.0641L34.4374 30.9259C35.2508 30.1569 35.2843 28.8744 34.5164 28.0609C33.7446 27.2482 32.4638 27.2146 31.6506 27.9826Z" fill="#EFF5F8"/>
<path d="M21.9482 41.0566H14.7734C13.772 41.0566 12.9585 41.8701 12.9585 42.8725V50.0444C12.9585 51.0468 13.772 51.8603 14.7734 51.8603H21.9482C22.9498 51.8603 23.7633 51.0468 23.7633 50.0444V42.8725C23.7633 41.8701 22.9498 41.0566 21.9482 41.0566Z" fill="#EFF5F8"/>
</svg>
