<svg width="26" height="24" viewBox="0 0 26 24" fill="none" xmlns="http://www.w3.org/2000/svg">
<g clip-path="url(#clip0)">
<path d="M12.8451 3.26667e-05C9.49175 0.0148396 6.28106 1.28566 3.91539 3.53449C1.54972 5.78332 0.221643 8.82711 0.22168 12C0.22168 15.1826 1.55788 18.2349 3.93634 20.4853C6.31479 22.7358 9.54067 24 12.9043 24C16.268 24 19.4938 22.7358 21.8723 20.4853C24.2507 18.2349 25.587 15.1826 25.587 12C25.587 8.81743 24.2507 5.76519 21.8723 3.51475C19.4938 1.26431 16.268 3.26667e-05 12.9043 3.26667e-05C12.8846 -1.08889e-05 12.8649 -1.08889e-05 12.8451 3.26667e-05ZM18.0894 7.22403C18.1951 7.22203 18.4287 7.24703 18.5809 7.36403C18.682 7.44713 18.7465 7.56311 18.7616 7.68903C18.7785 7.78203 18.7996 7.99503 18.7827 8.16103C18.5925 10.059 17.766 14.663 17.3454 16.788C17.1678 17.688 16.818 17.989 16.4787 18.018C15.7431 18.083 15.184 17.558 14.4706 17.116C13.3545 16.423 12.7236 15.992 11.6403 15.316C10.3879 14.536 11.1996 14.106 11.913 13.406C12.1 13.222 15.3447 10.429 15.4081 10.176C15.4155 10.144 15.4229 10.026 15.3489 9.96403C15.2749 9.90203 15.165 9.92303 15.0857 9.94003C14.9737 9.96403 13.1907 11.08 9.73683 13.285C9.22952 13.615 8.77189 13.775 8.36076 13.765C7.90841 13.757 7.03754 13.524 6.38967 13.325C5.59489 13.08 4.96393 12.951 5.01889 12.536C5.04742 12.32 5.36237 12.099 5.96269 11.873C9.65967 10.349 12.1243 9.34403 13.3588 8.85903C16.8803 7.47303 17.6127 7.23203 18.0894 7.22403Z" fill="#EFF5F8"/>
</g>
<defs>
<clipPath id="clip0">
<rect width="25.3653" height="24" fill="white" transform="translate(0.22168)"/>
</clipPath>
</defs>
</svg>
