<svg width="29" height="24" viewBox="0 0 29 24" fill="none" xmlns="http://www.w3.org/2000/svg">
<g clip-path="url(#clip0)">
<path d="M21.0126 14.382C20.6613 14.233 18.9335 13.515 18.6118 13.415C18.289 13.316 18.0548 13.267 17.8195 13.565C17.5865 13.862 16.9124 14.531 16.7078 14.729C16.5032 14.928 16.2974 14.952 15.9462 14.804C15.5949 14.654 14.462 14.341 13.1197 13.329C12.0754 12.541 11.3694 11.568 11.1648 11.27C10.9602 10.973 11.1435 10.812 11.3185 10.664C11.477 10.531 11.6709 10.317 11.846 10.144C12.0222 9.97004 12.0801 9.84604 12.1984 9.64704C12.3155 9.44904 12.2575 9.27604 12.1688 9.12704C12.0801 8.97804 11.3777 7.51504 11.0855 6.92004C10.7993 6.34104 10.5096 6.42004 10.2944 6.41004C10.0898 6.40204 9.8556 6.40004 9.62026 6.40004C9.38609 6.40004 9.00529 6.47404 8.68361 6.77204C8.36193 7.06904 7.45367 7.78804 7.45367 9.25104C7.45367 10.713 8.71317 12.126 8.8882 12.325C9.06442 12.523 11.367 15.525 14.8924 16.812C15.7309 17.118 16.3849 17.301 16.8958 17.437C17.7379 17.664 18.5042 17.632 19.1085 17.555C19.7838 17.47 21.1876 16.836 21.4809 16.142C21.7742 15.448 21.7742 14.853 21.6855 14.729C21.598 14.605 21.3638 14.531 21.0114 14.382H21.0126ZM14.6003 21.785H14.5956C12.5021 21.7852 10.447 21.3092 8.64576 20.407L8.21883 20.193L3.7946 21.175L4.97487 17.527L4.69695 17.153C3.52666 15.5773 2.90755 13.7537 2.91117 11.893C2.91235 6.44304 8.15734 2.00904 14.6051 2.00904C17.7272 2.00904 20.6625 3.03904 22.8693 4.90704C23.9581 5.82366 24.8212 6.91377 25.4084 8.11428C25.9957 9.3148 26.2956 10.6019 26.2907 11.901C26.2871 17.351 21.0433 21.785 14.6003 21.785ZM24.5498 3.48804C23.2468 2.37896 21.6964 1.49958 19.9885 0.900841C18.2806 0.302105 16.4492 -0.00407625 14.6003 4.09775e-05C6.84816 4.09775e-05 0.538804 5.33504 0.535256 11.892C0.535256 13.988 1.18216 16.034 2.41328 17.837L0.416992 24L7.8735 22.346C9.93554 23.296 12.2462 23.7938 14.5944 23.794H14.6003C22.3513 23.794 28.6619 18.459 28.6654 11.901C28.6711 10.3383 28.3103 8.79014 27.6039 7.34607C26.8975 5.90201 25.8594 4.59071 24.5498 3.48804Z" fill="#236899"/>
</g>
<defs>
<clipPath id="clip0">
<rect width="28.3832" height="24" fill="white" transform="translate(0.350098)"/>
</clipPath>
</defs>
</svg>
